<svg xmlns="http://www.w3.org/2000/svg" xmlns:xlink="http://www.w3.org/1999/xlink" width="600" zoomAndPan="magnify" viewBox="0 0 450 149.999998" height="200" preserveAspectRatio="xMidYMid meet" version="1.0"><defs><clipPath id="7d7f67ff07"><path d="M 287 55 L 341 55 L 341 140.65625 L 287 140.65625 Z M 287 55 " clip-rule="nonzero"/></clipPath><clipPath id="1a53d88d97"><path d="M 393 54 L 432.632812 54 L 432.632812 105 L 393 105 Z M 393 54 " clip-rule="nonzero"/></clipPath><clipPath id="1cbe1518f1"><path d="M 17.132812 9.40625 L 112 9.40625 L 112 82 L 17.132812 82 Z M 17.132812 9.40625 " clip-rule="nonzero"/></clipPath></defs><path fill="#ee1e37" d="M 173.339844 104.914062 L 153.769531 104.914062 C 152.09375 104.867188 150.445312 104.652344 148.820312 104.269531 C 145.09375 103.386719 141.777344 101.78125 138.875 99.460938 C 135.972656 97.136719 133.671875 94.292969 131.972656 90.917969 C 130.277344 87.542969 129.429688 83.882812 129.429688 79.9375 C 129.429688 75.988281 130.3125 72.191406 132.082031 68.757812 C 133.851562 65.328125 136.25 62.449219 139.285156 60.128906 C 142.320312 57.808594 145.773438 56.253906 149.644531 55.464844 C 151.21875 55.152344 152.835938 54.996094 154.484375 54.996094 L 160.898438 54.996094 L 160.898438 26.9375 L 173.335938 26.9375 L 173.335938 104.914062 Z M 160.902344 103.730469 L 160.902344 56.183594 L 154.269531 56.183594 C 150.683594 56.421875 147.6875 58.816406 145.273438 63.359375 C 142.859375 67.90625 141.652344 73.429688 141.652344 79.9375 C 141.652344 86.445312 142.835938 91.894531 145.199219 96.425781 C 147.566406 100.960938 150.519531 103.394531 154.054688 103.730469 Z M 160.902344 103.730469 " fill-opacity="1" fill-rule="nonzero"/><path fill="#ee1e37" d="M 201.191406 104.953125 C 197.558594 104.953125 194.199219 104.074219 191.101562 102.316406 C 188.007812 100.558594 185.421875 98.171875 183.339844 95.160156 C 181.261719 92.148438 179.863281 88.710938 179.148438 84.859375 C 178.859375 83.1875 178.71875 81.558594 178.71875 79.980469 C 178.71875 75.554688 179.65625 71.511719 181.53125 67.851562 C 183.410156 64.191406 185.921875 61.226562 189.078125 58.953125 C 192.710938 56.320312 196.769531 55.003906 201.265625 55.003906 L 219.652344 55.003906 L 219.652344 55.078125 C 219.675781 55.292969 219.6875 55.664062 219.6875 56.1875 C 219.6875 57.265625 219.609375 59.261719 219.453125 62.179688 C 219.300781 65.097656 218.546875 68.816406 217.199219 73.324219 C 215.847656 77.832031 213.480469 81.902344 210.101562 85.523438 C 206.71875 89.148438 201.886719 91.402344 195.601562 92.289062 C 197.179688 94.660156 199.070312 96.519531 201.265625 97.871094 C 203.464844 99.21875 205.828125 99.898438 208.363281 99.898438 C 212.570312 99.898438 216.296875 98.042969 219.550781 94.332031 C 217.46875 97.585938 214.835938 100.167969 211.644531 102.082031 C 208.457031 103.996094 204.972656 104.953125 201.195312 104.953125 Z M 194.882812 91.210938 C 198.445312 90.0625 201.414062 86.6875 203.792969 81.089844 C 206.171875 75.492188 207.410156 67.203125 207.503906 56.222656 L 203.988281 56.222656 C 201.050781 56.222656 198.542969 57.417969 196.464844 59.8125 C 194.789062 61.964844 193.476562 64.480469 192.519531 67.363281 C 191.5625 70.246094 191.085938 73.339844 191.085938 76.640625 C 191.085938 82.167969 192.351562 87.023438 194.882812 91.210938 Z M 194.882812 91.210938 " fill-opacity="1" fill-rule="nonzero"/><path fill="#ee1e37" d="M 245.785156 104.953125 L 226.859375 104.953125 L 226.859375 92.96875 C 228.84375 96.054688 231.476562 98.546875 234.761719 100.449219 C 238.046875 102.347656 241.734375 103.433594 245.820312 103.695312 C 246.203125 103.71875 246.703125 103.730469 247.328125 103.730469 C 248.835938 103.707031 249.886719 103.644531 250.484375 103.550781 C 252.132812 103.191406 253.519531 102.4375 254.640625 101.289062 C 256.097656 99.808594 256.828125 98.050781 256.828125 96.015625 C 256.828125 93.289062 255.597656 91.125 253.136719 89.519531 C 252.394531 89.066406 251.582031 88.730469 250.699219 88.515625 C 250.652344 88.515625 246.445312 87.117188 238.082031 84.316406 C 235.261719 83.410156 233.777344 82.90625 233.636719 82.808594 C 231.222656 81.589844 229.273438 79.9375 227.792969 77.859375 C 226.050781 75.417969 225.175781 72.738281 225.175781 69.820312 C 225.175781 67.285156 225.84375 64.902344 227.183594 62.679688 C 228.28125 60.859375 229.742188 59.316406 231.558594 58.050781 C 234.210938 56.207031 237.230469 55.191406 240.625 54.996094 L 262.957031 54.996094 L 262.957031 66.945312 C 261.785156 65.128906 260.363281 63.5 258.691406 62.066406 C 254.867188 58.765625 250.230469 56.824219 244.785156 56.253906 C 244.210938 56.203125 243.613281 56.179688 242.992188 56.179688 L 240.664062 56.179688 C 240.183594 56.203125 239.730469 56.253906 239.300781 56.320312 C 237.03125 56.609375 235.214844 57.675781 233.851562 59.515625 C 232.921875 60.785156 232.453125 62.242188 232.453125 63.894531 C 232.453125 66.839844 233.851562 69.109375 236.644531 70.714844 C 237.292969 71.046875 237.972656 71.300781 238.691406 71.46875 L 255.214844 76.992188 C 258.105469 78.285156 260.398438 80.273438 262.097656 82.949219 C 263.484375 85.171875 264.179688 87.578125 264.179688 90.160156 C 264.179688 92.742188 263.445312 95.316406 261.972656 97.585938 C 260.503906 99.859375 258.511719 101.65625 256.003906 102.96875 C 254.066406 103.972656 251.992188 104.609375 249.765625 104.871094 C 249.261719 104.917969 247.9375 104.945312 245.785156 104.945312 Z M 245.785156 104.953125 " fill-opacity="1" fill-rule="nonzero"/><path fill="#ee1e37" d="M 275.894531 46.710938 C 274.152344 46.710938 272.65625 46.089844 271.414062 44.847656 C 270.171875 43.605469 269.550781 42.109375 269.550781 40.359375 C 269.550781 38.609375 270.171875 37.125 271.414062 35.890625 C 272.65625 34.660156 274.148438 34.046875 275.894531 34.046875 C 277.640625 34.046875 279.125 34.664062 280.359375 35.890625 C 281.589844 37.125 282.203125 38.613281 282.203125 40.359375 C 282.203125 42.105469 281.585938 43.601562 280.359375 44.847656 C 279.125 46.089844 277.640625 46.710938 275.894531 46.710938 Z M 282.09375 104.953125 L 269.691406 104.953125 L 269.691406 55 L 282.09375 55 Z M 282.09375 104.953125 " fill-opacity="1" fill-rule="nonzero"/><g clip-path="url(#7d7f67ff07)"><path fill="#ee1e37" d="M 327.585938 140.65625 C 323.738281 140.65625 320.539062 138.898438 317.980469 135.382812 C 319.320312 136.554688 320.941406 137.140625 322.855469 137.140625 C 324.765625 137.140625 326.347656 136.453125 327.746094 135.078125 C 329.144531 133.703125 329.847656 132.035156 329.847656 130.074219 C 329.847656 128.496094 329.394531 127.070312 328.5 125.800781 C 327.605469 124.535156 326.367188 123.648438 324.792969 123.144531 C 324.359375 123.027344 323.917969 122.964844 323.464844 122.964844 L 305.144531 122.964844 C 302.230469 122.75 299.6875 121.511719 297.511719 119.253906 C 295.339844 116.992188 293.832031 114.089844 292.996094 110.550781 C 292.636719 108.972656 292.457031 107.324219 292.457031 105.601562 C 292.457031 102.441406 293.054688 99.546875 294.25 96.914062 C 292.167969 94.664062 290.539062 92.09375 289.355469 89.199219 C 288.171875 86.308594 287.582031 83.230469 287.582031 79.976562 C 287.582031 76.054688 288.417969 72.410156 290.089844 69.050781 C 291.761719 65.6875 294.046875 62.847656 296.9375 60.527344 C 299.824219 58.207031 303.125 56.589844 306.828125 55.683594 C 307.90625 55.324219 309.507812 55.097656 311.632812 55 L 336.90625 55 C 336.09375 55.214844 335.398438 55.621094 334.828125 56.222656 C 334.015625 57.082031 333.609375 58.132812 333.609375 59.378906 C 333.609375 59.980469 333.714844 60.550781 333.933594 61.101562 L 334.253906 61.75 L 334.289062 61.785156 C 334.503906 62.140625 334.707031 62.511719 334.898438 62.898438 C 336.835938 66.9375 337.800781 71.6875 337.800781 77.140625 C 337.800781 83.171875 336.617188 88.3125 334.25 92.570312 C 331.742188 96.828125 328.265625 100.082031 323.820312 102.332031 C 320.378906 104.078125 316.652344 104.953125 312.632812 104.953125 C 309.382812 104.953125 306.3125 104.375 303.421875 103.214844 C 300.527344 102.054688 297.960938 100.445312 295.714844 98.390625 L 295.679688 99.824219 C 295.679688 104.15625 296.945312 107.226562 299.476562 109.046875 C 300.863281 110.050781 302.417969 110.554688 304.136719 110.554688 L 327.363281 110.554688 C 330.0625 110.554688 332.546875 111.425781 334.820312 113.175781 C 337.640625 115.546875 339.398438 118.808594 340.089844 122.972656 C 340.210938 123.808594 340.269531 124.671875 340.269531 125.554688 C 340.269531 129.71875 339.035156 133.277344 336.5625 136.230469 C 334.089844 139.179688 331.097656 140.660156 327.582031 140.660156 Z M 312.816406 103.734375 C 316.234375 103.566406 319.113281 101.425781 321.457031 97.3125 C 324.132812 92.597656 325.472656 86.820312 325.472656 79.980469 C 325.472656 75.554688 324.886719 71.53125 323.714844 67.90625 C 322.542969 64.28125 320.988281 61.421875 319.054688 59.328125 C 317.121094 57.234375 315.003906 56.1875 312.710938 56.1875 L 312.207031 56.222656 C 308.714844 56.605469 305.800781 59.058594 303.460938 63.582031 C 301.121094 68.101562 299.949219 73.566406 299.949219 79.980469 C 299.949219 86.394531 301.167969 92.09375 303.605469 96.648438 C 306.042969 101.207031 309.078125 103.570312 312.710938 103.738281 L 312.816406 103.738281 Z M 312.816406 103.734375 " fill-opacity="1" fill-rule="nonzero"/></g><path fill="#ee1e37" d="M 388.09375 104.953125 L 375.65625 104.953125 L 375.65625 65.550781 C 375.65625 63.015625 374.765625 60.855469 372.984375 59.074219 C 371.203125 57.292969 369.046875 56.402344 366.515625 56.402344 L 357.375 56.402344 L 357.375 104.953125 L 344.9375 104.953125 L 344.9375 55 L 375.65625 55 L 375.65625 54.964844 C 379.097656 54.964844 382.03125 56.179688 384.457031 58.609375 C 386.882812 61.039062 388.097656 63.972656 388.097656 67.421875 L 388.097656 104.957031 Z M 388.09375 104.953125 " fill-opacity="1" fill-rule="nonzero"/><g clip-path="url(#1a53d88d97)"><path fill="#ee1e37" d="M 414.085938 104.953125 L 395.160156 104.953125 L 395.160156 92.96875 C 397.144531 96.054688 399.777344 98.546875 403.0625 100.449219 C 406.347656 102.347656 410.035156 103.433594 414.121094 103.695312 C 414.503906 103.71875 415.003906 103.730469 415.625 103.730469 C 417.132812 103.707031 418.183594 103.644531 418.78125 103.550781 C 420.429688 103.191406 421.816406 102.4375 422.941406 101.289062 C 424.394531 99.808594 425.128906 98.050781 425.128906 96.015625 C 425.128906 93.289062 423.894531 91.125 421.433594 89.519531 C 420.691406 89.066406 419.878906 88.730469 418.996094 88.515625 C 418.949219 88.515625 414.742188 87.117188 406.378906 84.316406 C 403.558594 83.410156 402.078125 82.90625 401.933594 82.808594 C 399.519531 81.589844 397.574219 79.9375 396.09375 77.859375 C 394.347656 75.417969 393.472656 72.738281 393.472656 69.820312 C 393.472656 67.285156 394.140625 64.902344 395.480469 62.679688 C 396.578125 60.859375 398.039062 59.316406 399.855469 58.050781 C 402.507812 56.207031 405.53125 55.191406 408.921875 54.996094 L 431.253906 54.996094 L 431.253906 66.945312 C 430.082031 65.128906 428.664062 63.5 426.988281 62.066406 C 423.164062 58.765625 418.527344 56.824219 413.082031 56.253906 C 412.507812 56.203125 411.910156 56.179688 411.289062 56.179688 L 408.960938 56.179688 C 408.484375 56.203125 408.03125 56.253906 407.601562 56.320312 C 405.332031 56.609375 403.515625 57.675781 402.148438 59.515625 C 401.21875 60.785156 400.75 62.242188 400.75 63.894531 C 400.75 66.839844 402.148438 69.109375 404.945312 70.714844 C 405.589844 71.046875 406.269531 71.300781 406.988281 71.46875 L 423.511719 76.992188 C 426.402344 78.285156 428.699219 80.273438 430.398438 82.949219 C 431.785156 85.171875 432.476562 87.578125 432.476562 90.160156 C 432.476562 92.742188 431.742188 95.316406 430.269531 97.585938 C 428.800781 99.859375 426.8125 101.65625 424.300781 102.96875 C 422.363281 103.972656 420.289062 104.609375 418.0625 104.871094 C 417.558594 104.917969 416.234375 104.945312 414.085938 104.945312 Z M 414.085938 104.953125 " fill-opacity="1" fill-rule="nonzero"/></g><g clip-path="url(#1cbe1518f1)"><path fill="#3d2f90" d="M 17.292969 74.621094 C 17.292969 70.09375 21.617188 64.34375 29.667969 58.335938 C 38.019531 52.058594 46.070312 47.601562 52.734375 44.492188 L 51.449219 44.492188 C 38.414062 44.492188 28.679688 41.289062 28.679688 35.339844 C 28.679688 28.699219 41.84375 21.601562 69.53125 14.5625 C 83.09375 11.09375 92.464844 9.40625 98.042969 9.40625 C 103.023438 9.40625 105.238281 10.929688 105.238281 13.40625 C 105.238281 15.882812 102.367188 19.285156 96.195312 23.878906 C 91.476562 27.414062 86.589844 30.320312 86.390625 30.417969 C 86.128906 30.582031 85.863281 30.648438 85.566406 30.648438 C 84.675781 30.648438 83.917969 29.886719 83.917969 29.03125 C 83.917969 28.46875 84.214844 27.910156 84.742188 27.609375 C 84.773438 27.578125 89.460938 24.769531 93.980469 21.46875 C 101.800781 15.683594 101.96875 13.570312 101.96875 13.375 C 101.96875 13.375 101.4375 12.714844 98.007812 12.714844 C 93.320312 12.714844 84.609375 14.105469 70.355469 17.738281 C 56.265625 21.304688 45.769531 24.972656 39.140625 28.574219 C 34.585938 31.050781 31.945312 33.5625 31.945312 35.378906 C 32.109375 37.097656 34.417969 39.210938 41.582031 40.46875 C 44.519531 40.996094 47.882812 41.226562 51.414062 41.226562 C 54.949219 41.226562 59.003906 40.964844 62.835938 40.402344 C 66.828125 38.980469 69.894531 38.191406 71.84375 37.757812 C 74.019531 37.296875 75.308594 37.132812 76.097656 37.132812 C 76.957031 37.132812 77.21875 37.296875 77.449219 37.460938 C 77.945312 37.757812 78.242188 38.320312 78.242188 38.914062 C 78.109375 40.269531 77.617188 40.667969 73.917969 41.625 C 72.203125 42.054688 69.101562 42.714844 64.019531 43.539062 L 63.625 43.574219 C 55.078125 46.777344 44.550781 51.238281 31.648438 60.949219 C 23.429688 67.125 20.558594 71.949219 20.558594 74.625 L 20.59375 75.089844 C 20.660156 75.519531 20.855469 76.804688 23.097656 77.664062 C 24.417969 78.160156 26.035156 78.390625 27.949219 78.390625 C 33.988281 78.390625 42.832031 75.980469 52.898438 71.453125 C 64.675781 66.199219 83.949219 55.398438 108.765625 34.054688 C 109.0625 33.792969 109.457031 33.660156 109.824219 33.660156 C 110.714844 33.660156 111.472656 34.417969 111.472656 35.308594 C 111.472656 35.773438 111.273438 36.203125 110.910156 36.53125 C 85.765625 58.136719 66.195312 69.070312 54.21875 74.453125 C 43.726562 79.179688 34.519531 81.65625 27.917969 81.65625 C 21.320312 81.65625 17.292969 78.945312 17.292969 74.621094 Z M 17.292969 74.621094 " fill-opacity="1" fill-rule="nonzero"/></g><path fill="#3d2f90" d="M 78.007812 80.054688 C 77.84375 79.65625 77.746094 79.195312 77.746094 78.632812 C 77.746094 77.476562 78.273438 75.957031 80.085938 74.171875 C 83.71875 70.605469 91.308594 66.839844 100.382812 63.898438 L 108.664062 49.527344 C 104.011719 50.519531 100.183594 51.082031 97.742188 51.3125 C 97.015625 51.378906 96.355469 51.445312 95.828125 51.445312 C 94.308594 51.445312 93.515625 50.71875 93.515625 49.695312 C 93.515625 49.363281 93.613281 49.035156 93.8125 48.738281 C 94.179688 48.207031 94.574219 47.617188 102.195312 45.730469 C 105.199219 45.003906 108.5625 44.277344 112.09375 43.582031 L 122.882812 24.851562 C 123.183594 24.320312 123.742188 24.058594 124.300781 24.058594 C 125.191406 24.058594 125.917969 24.785156 125.917969 25.675781 C 125.917969 25.976562 125.851562 26.238281 125.71875 26.503906 L 116.316406 42.789062 C 117.144531 42.625 117.964844 42.492188 118.792969 42.359375 L 120.738281 40.179688 C 138.160156 20.65625 149.613281 12 157.5 11.835938 C 161.789062 11.835938 162.644531 13.949219 162.777344 15.238281 L 162.8125 15.632812 C 162.8125 22.304688 146.542969 33.703125 133.839844 40.246094 C 138.125 39.785156 142.582031 39.453125 146.640625 39.453125 C 149.777344 39.453125 152.679688 39.648438 155.089844 40.113281 C 160.894531 41.234375 161.953125 44.441406 161.953125 46.652344 C 161.757812 50.75 158.816406 55.144531 152.976562 60.332031 C 155.78125 61.054688 158.585938 61.980469 161.292969 63.136719 C 161.886719 63.398438 162.246094 64.03125 162.246094 64.660156 C 162.246094 65.515625 161.554688 66.277344 160.628906 66.277344 C 160.398438 66.277344 160.203125 66.246094 159.972656 66.144531 C 156.707031 64.726562 153.269531 63.667969 149.808594 62.941406 C 134.828125 74.667969 111.925781 83.753906 91.796875 84.015625 C 83.546875 84.015625 79.226562 82.992188 78.003906 80.054688 Z M 137.242188 67.402344 C 140.277344 65.648438 142.980469 63.902344 145.390625 62.183594 C 141.859375 61.691406 138.292969 61.523438 134.894531 61.523438 C 126.8125 61.523438 119.453125 62.613281 114.371094 63.605469 C 110.441406 64.398438 106.683594 65.359375 103.25 66.414062 L 100.90625 69.488281 C 100.609375 69.917969 100.117188 70.144531 99.585938 70.144531 C 98.730469 70.144531 97.96875 69.421875 97.96875 68.496094 L 98 68.164062 C 90.476562 70.90625 84.902344 74.046875 82.390625 76.523438 C 81.304688 77.582031 81.003906 78.308594 81.003906 78.636719 L 81.035156 78.800781 C 81.070312 78.867188 81.960938 80.75 91.035156 80.75 L 91.726562 80.75 C 106.082031 80.554688 122.683594 75.695312 137.234375 67.40625 Z M 134.734375 58.25 C 139.320312 58.25 144.140625 58.582031 148.957031 59.476562 C 155.722656 53.957031 158.527344 49.628906 158.691406 46.59375 C 158.691406 45.636719 158.261719 44.046875 154.503906 43.355469 C 152.257812 42.921875 149.550781 42.726562 146.515625 42.726562 C 139.71875 42.726562 131.371094 43.683594 123.417969 44.9375 C 122.164062 45.433594 120.914062 45.894531 119.691406 46.324219 C 114.839844 51.878906 110.351562 57.359375 106.65625 62.050781 C 113.753906 60.132812 123.453125 58.25 134.742188 58.25 Z M 113.710938 48.242188 L 113.085938 48.441406 L 111.964844 50.324219 L 113.714844 48.242188 Z M 142.683594 31.398438 C 154.300781 23.933594 159.546875 17.722656 159.546875 15.671875 C 159.546875 15.375 159.316406 15.109375 156.972656 15.109375 C 149.648438 15.441406 136.515625 27.664062 124.4375 41.007812 C 130.640625 38.398438 136.84375 35.128906 142.6875 31.398438 Z M 142.683594 31.398438 " fill-opacity="1" fill-rule="nonzero"/></svg>